<svg width="14" height="11" viewBox="0 0 14 11" fill="none" xmlns="http://www.w3.org/2000/svg">
<path fill-rule="evenodd" clip-rule="evenodd" d="M13.334 1.6306L13.9889 7.31936C14.104 8.31944 13.3094 9.21537 12.214 9.32048L10.1526 9.51738L9.96099 10.1815C9.79734 10.7466 9.16841 11.09 8.52885 10.9793L8.42954 10.9585L0.934192 9.10153C0.268426 8.93659 -0.131256 8.32778 0.0393714 7.73851L1.98925 1.00438C2.1529 0.439285 2.78183 0.0958582 3.42139 0.206563L3.5207 0.22743C4.05219 0.359104 4.55108 0.482702 5.01738 0.598224L11.1421 0.0101217C12.2375 -0.0949906 13.2189 0.630521 13.334 1.6306ZM9.48513 9.58212L6.39256 9.8783L8.59265 10.4244C8.90372 10.4996 9.22001 10.3546 9.33223 10.0965L9.35441 10.035L9.48513 9.58212ZM2.61801 1.08938L2.59583 1.1509L0.645934 7.88502C0.566714 8.15861 0.733367 8.44063 1.0241 8.54555L1.09334 8.56653L4.3368 9.36969C4.03963 9.08794 3.83923 8.71704 3.79098 8.29792L3.13607 2.60916C3.05694 1.92178 3.40761 1.2836 3.99033 0.917587C3.98706 0.917393 3.98332 0.916465 3.97958 0.915539C3.84224 0.881514 3.63623 0.830475 3.36155 0.762424C3.0468 0.686385 2.73025 0.831295 2.61801 1.08938ZM8.79587 3.33687L8.73484 3.3381L5.48747 3.70935L5.42793 3.72191C5.29504 3.76346 5.2073 3.88749 5.22505 4.02209C5.24534 4.17592 5.39572 4.28531 5.56093 4.26642L8.8083 3.89517L8.86784 3.88262C9.00073 3.84106 9.08846 3.71704 9.07071 3.58243C9.0555 3.46706 8.96711 3.37669 8.85416 3.34668L8.79587 3.33687ZM9.86241 1.94643L9.80138 1.94767L5.16228 2.47803L5.10274 2.49058C4.96985 2.53214 4.88212 2.65616 4.89987 2.79076C4.92015 2.94459 5.07053 3.05399 5.23574 3.0351L9.87484 2.50473L9.93438 2.49218C10.0673 2.45063 10.155 2.3266 10.1373 2.192C10.122 2.07663 10.0336 1.98625 9.9207 1.95624L9.86241 1.94643Z" fill="#4B71F3"/>
</svg>
