<svg width="24" height="25" viewBox="0 0 24 25" fill="none" xmlns="http://www.w3.org/2000/svg">
<path fill-rule="evenodd" clip-rule="evenodd" d="M18.334 9.1306L18.9889 14.8194C19.104 15.8194 18.3094 16.7154 17.214 16.8205L15.1526 17.0174L14.961 17.6815C14.7973 18.2466 14.1684 18.59 13.5289 18.4793L13.4295 18.4585L5.93419 16.6015C5.26843 16.4366 4.86874 15.8278 5.03937 15.2385L6.98925 8.50438C7.1529 7.93928 7.78183 7.59586 8.42139 7.70656L8.5207 7.72743C9.05219 7.8591 9.55108 7.9827 10.0174 8.09822L16.1421 7.51012C17.2375 7.40501 18.2189 8.13052 18.334 9.1306ZM14.4851 17.0821L11.3926 17.3783L13.5927 17.9244C13.9037 17.9996 14.22 17.8546 14.3322 17.5965L14.3544 17.535L14.4851 17.0821ZM7.61801 8.58938L7.59583 8.6509L5.64593 15.385C5.56671 15.6586 5.73337 15.9406 6.0241 16.0455L6.09334 16.0665L9.3368 16.8697C9.03963 16.5879 8.83923 16.217 8.79098 15.7979L8.13607 10.1092C8.05694 9.42178 8.40761 8.7836 8.99033 8.41759C8.98706 8.41739 8.98332 8.41647 8.97958 8.41554C8.84224 8.38151 8.63623 8.33048 8.36155 8.26242C8.0468 8.18639 7.73025 8.3313 7.61801 8.58938ZM13.7959 10.8369L13.7348 10.8381L10.4875 11.2094L10.4279 11.2219C10.295 11.2635 10.2073 11.3875 10.2251 11.5221C10.2453 11.6759 10.3957 11.7853 10.5609 11.7664L13.8083 11.3952L13.8678 11.3826C14.0007 11.3411 14.0885 11.217 14.0707 11.0824C14.0555 10.9671 13.9671 10.8767 13.8542 10.8467L13.7959 10.8369ZM14.8624 9.44643L14.8014 9.44767L10.1623 9.97803L10.1027 9.99058C9.96985 10.0321 9.88212 10.1562 9.89987 10.2908C9.92015 10.4446 10.0705 10.554 10.2357 10.5351L14.8748 10.0047L14.9344 9.99218C15.0673 9.95063 15.155 9.8266 15.1373 9.692C15.122 9.57663 15.0336 9.48625 14.9207 9.45624L14.8624 9.44643Z" fill="#4B71F3"/>
</svg>
