<svg width="34" height="35" viewBox="0 0 34 35" fill="none" xmlns="http://www.w3.org/2000/svg">
<g filter="url(#filter0_d_6_1569)">
<path fill-rule="evenodd" clip-rule="evenodd" d="M25.9728 12.2265L26.9006 20.2856C27.0637 21.7024 25.938 22.9716 24.3861 23.1205L21.4658 23.3995L21.1944 24.3403C20.9626 25.1408 20.0716 25.6274 19.1655 25.4705L19.0249 25.441L8.40645 22.8103C7.46328 22.5767 6.89706 21.7142 7.13878 20.8794L9.90111 11.3394C10.1329 10.5388 11.0239 10.0523 11.93 10.2091L12.0707 10.2387C12.8236 10.4252 13.5304 10.6003 14.191 10.764L22.8677 9.93084C24.4195 9.78193 25.8097 10.8097 25.9728 12.2265ZM20.5203 23.4912L16.1391 23.9108L19.2559 24.6844C19.6966 24.7909 20.1447 24.5855 20.3037 24.2199L20.3351 24.1327L20.5203 23.4912ZM10.7919 11.4598L10.7604 11.5469L7.99808 21.087C7.88585 21.4745 8.12194 21.8741 8.53382 22.0227L8.63191 22.0524L13.2268 23.1902C12.8058 22.7911 12.5219 22.2656 12.4536 21.6719L11.5258 13.6128C11.4137 12.639 11.9105 11.7349 12.736 11.2164C12.7314 11.2161 12.726 11.2148 12.7208 11.2135C12.5262 11.1653 12.2343 11.093 11.8452 10.9966C11.3993 10.8889 10.9509 11.0942 10.7919 11.4598ZM19.5438 14.6437L19.4574 14.6455L14.8569 15.1714L14.7726 15.1892C14.5843 15.2481 14.46 15.4238 14.4852 15.6145C14.5139 15.8324 14.7269 15.9874 14.961 15.9606L19.5614 15.4347L19.6458 15.4169C19.834 15.358 19.9583 15.1823 19.9332 14.9916C19.9116 14.8282 19.7864 14.7001 19.6264 14.6576L19.5438 14.6437ZM21.0548 12.6739L20.9683 12.6757L14.3962 13.427L14.3119 13.4448C14.1236 13.5037 13.9993 13.6794 14.0245 13.8701C14.0532 14.088 14.2663 14.243 14.5003 14.2162L21.0724 13.4649L21.1567 13.4471C21.345 13.3882 21.4693 13.2125 21.4441 13.0218C21.4226 12.8584 21.2973 12.7304 21.1373 12.6878L21.0548 12.6739Z" fill="white"/>
</g>
<defs>
<filter id="filter0_d_6_1569" x="3.08301" y="6.9165" width="27.8334" height="23.5833" filterUnits="userSpaceOnUse" color-interpolation-filters="sRGB">
<feFlood flood-opacity="0" result="BackgroundImageFix"/>
<feColorMatrix in="SourceAlpha" type="matrix" values="0 0 0 0 0 0 0 0 0 0 0 0 0 0 0 0 0 0 127 0" result="hardAlpha"/>
<feOffset dy="1"/>
<feGaussianBlur stdDeviation="2"/>
<feComposite in2="hardAlpha" operator="out"/>
<feColorMatrix type="matrix" values="0 0 0 0 0 0 0 0 0 0 0 0 0 0 0 0 0 0 0.08 0"/>
<feBlend mode="normal" in2="BackgroundImageFix" result="effect1_dropShadow_6_1569"/>
<feBlend mode="normal" in="SourceGraphic" in2="effect1_dropShadow_6_1569" result="shape"/>
</filter>
</defs>
</svg>
