<svg
  width="24"
  height="25"
  viewBox="0 0 24 25"
  fill="none"
  xmlns="http://www.w3.org/2000/svg"
>
  <g clip-path="url(#clip0_757_11677)">
    <rect
      x="0.4"
      y="0.9"
      width="23.2"
      height="23.2"
      rx="2.6"
      fill="#EE2B57"
      stroke="#FE4C74"
      strokeWidth="0.8"
    />
    <path
      fillRule="evenodd"
      clipRule="evenodd"
      d="M8.28457 5.5001L15.1087 5.5001C15.147 5.5137 15.184 5.53573 15.2236 5.54091C16.8879 5.77414 17.9948 7.09833 17.9967 8.86176C17.9979 9.90802 17.9887 10.9536 17.9998 11.9993C18.0084 12.8149 17.7781 13.5334 17.3188 14.1909C16.0527 16.0029 14.9908 16.8315 14.208 20.039C13.5981 20.9265 12.4708 20.8494 11.9967 19.8706C11.1818 18.1881 12.0399 16.5231 12.5004 14.9061C11.967 14.6846 11.0163 14.8718 10.4231 14.8653C9.61001 14.8556 8.79512 14.8679 7.98454 14.8077C7.12457 14.7435 6.62082 14.0588 6.69984 13.1589C6.7091 13.0552 6.73688 12.9516 6.73379 12.8486C6.73194 12.7806 6.70848 12.6866 6.66218 12.6523C6.10225 12.2409 5.84049 11.5373 6.10163 10.8584C6.13188 10.7787 6.42018 10.357 6.3819 10.2734C5.97013 9.36772 5.83061 8.54043 6.71836 7.86602C6.76343 7.83233 6.7696 7.69953 6.75293 7.62243C6.54612 6.69148 6.9974 5.87325 7.87712 5.6031C8.01108 5.56229 8.14875 5.53378 8.28457 5.5001Z"
      fill="white"
    />
  </g>
  <defs>
    <clipPath id="clip0_757_11677">
      <rect
        width="24"
        height="24"
        fill="white"
        transform="translate(0 0.5)"
      />
    </clipPath>
  </defs>
</svg>