<svg
  width="24"
  height="25"
  viewBox="0 0 24 25"
  fill="none"
  xmlns="http://www.w3.org/2000/svg"
>
  <g clip-path="url(#clip0_757_13292)">
    <rect
      x="0.4"
      y="0.9"
      width="23.2"
      height="23.2"
      rx="2.6"
      fill="#00B191"
      stroke="#01C4A1"
      strokeWidth="0.8"
    />
    <path
      fillRule="evenodd"
      clipRule="evenodd"
      d="M15.7154 19.6576L8.89127 19.6576C8.853 19.644 8.81596 19.622 8.77644 19.6168C7.11208 19.3836 6.00517 18.0594 6.00332 16.296C6.00209 15.2497 6.01135 14.2041 6.00023 13.1585C5.99159 12.3428 6.22186 11.6244 6.68117 10.9668C7.94735 9.15478 9.00919 8.32619 9.79198 5.11872C10.4019 4.23118 11.5292 4.30827 12.0033 5.28716C12.8182 6.96961 11.9601 8.63456 11.4996 10.2516C12.033 10.4731 12.9837 10.2859 13.5769 10.2924C14.39 10.3021 15.2049 10.2898 16.0155 10.3501C16.8754 10.4142 17.3792 11.099 17.3002 11.9988C17.2909 12.1025 17.2631 12.2061 17.2662 12.3091C17.2681 12.3772 17.2915 12.4711 17.3378 12.5054C17.8978 12.9168 18.1595 13.6204 17.8984 14.2993C17.8681 14.379 17.5798 14.8007 17.6181 14.8843C18.0299 15.79 18.1694 16.6173 17.2816 17.2917C17.2366 17.3254 17.2304 17.4582 17.2471 17.5353C17.4539 18.4662 17.0026 19.2845 16.1229 19.5546C15.9889 19.5954 15.8512 19.6239 15.7154 19.6576Z"
      fill="white"
    />
  </g>
  <defs>
    <clipPath id="clip0_757_13292">
      <rect
        width="24"
        height="24"
        fill="white"
        transform="translate(0 0.5)"
      />
    </clipPath>
  </defs>
</svg>