<svg width="156" height="119" viewBox="0 0 156 119" fill="none" xmlns="http://www.w3.org/2000/svg">
<g filter="url(#filter0_d_98_6097)">
<path d="M125.019 35.2493H124.985L105.309 43.6511L78.3875 55.1466C78.2823 55.1908 78.1695 55.2139 78.0554 55.2145C77.9412 55.2151 77.8281 55.1932 77.7225 55.15L49.9479 43.6271L29.7883 35.263L29.7575 35.2493H29.7232C29.4051 35.2496 29.1002 35.3761 28.8752 35.6011C28.6503 35.826 28.5238 36.1309 28.5234 36.449V88.5533C28.5238 88.8713 28.6503 89.1763 28.8752 89.4012C29.1002 89.6262 29.4051 89.7527 29.7232 89.753H125.019C125.337 89.7527 125.642 89.6262 125.867 89.4012C126.092 89.1763 126.218 88.8713 126.219 88.5533V36.449C126.218 36.1309 126.092 35.826 125.867 35.6011C125.642 35.3761 125.337 35.2496 125.019 35.2493Z" fill="white"/>
</g>
<g filter="url(#filter1_d_98_6097)">
<path d="M125.106 35.592C125.071 35.592 125.037 35.5813 125.008 35.5613L77.6076 2.54988C77.4633 2.44989 77.2919 2.39645 77.1164 2.39675C76.9409 2.39705 76.7696 2.45107 76.6257 2.55155L29.5662 35.5609C29.529 35.5868 29.483 35.5969 29.4383 35.589C29.3937 35.5811 29.354 35.5558 29.3279 35.5186C29.3019 35.4815 29.2916 35.4356 29.2994 35.3909C29.3072 35.3462 29.3323 35.3064 29.3693 35.2802L76.4289 2.27087C76.6304 2.13022 76.8701 2.0546 77.1158 2.0542C77.3616 2.0538 77.6015 2.12862 77.8035 2.26861L125.204 35.2799C125.234 35.3008 125.257 35.3306 125.269 35.3652C125.28 35.3997 125.281 35.4371 125.27 35.4719C125.259 35.5068 125.237 35.5372 125.208 35.5588C125.178 35.5803 125.143 35.592 125.106 35.592Z" fill="#3F3D56"/>
</g>
<path d="M32.2539 36.7623L77.1614 3.48022L122.41 39.1304L79.4753 64.5825L56.1656 59.2695L32.2539 36.7623Z" fill="#E6E6E6"/>
<path d="M58.1339 80.3033H35.9484C35.6735 80.3037 35.4097 80.1949 35.2151 80.0008C35.0204 79.8067 34.9108 79.5433 34.9104 79.2684C34.91 78.9935 35.0188 78.7297 35.2129 78.535C35.407 78.3403 35.6705 78.2308 35.9454 78.2303H58.1339C58.4088 78.2299 58.6726 78.3387 58.8673 78.5328C59.0619 78.7269 59.1715 78.9904 59.1719 79.2653C59.1723 79.5402 59.0635 79.804 58.8694 79.9987C58.6754 80.1933 58.4119 80.3029 58.137 80.3033H58.1339Z" fill="#00B191"/>
<path d="M43.9074 75.847H35.9477C35.6729 75.8472 35.4093 75.7383 35.2148 75.5443C35.0203 75.3502 34.9108 75.0868 34.9104 74.8121C34.91 74.5373 35.0187 74.2736 35.2126 74.079C35.4066 73.8843 35.6699 73.7746 35.9446 73.7741H43.9074C44.0435 73.7738 44.1784 73.8003 44.3043 73.8522C44.4303 73.904 44.5447 73.9802 44.6412 74.0763C44.7376 74.1724 44.8142 74.2866 44.8665 74.4123C44.9189 74.538 44.9459 74.6728 44.9461 74.809C44.9463 74.9452 44.9197 75.0801 44.8677 75.2059C44.8158 75.3318 44.7395 75.4462 44.6433 75.5426C44.5472 75.639 44.4329 75.7155 44.3072 75.7677C44.1814 75.82 44.0466 75.8469 43.9104 75.847H43.9074Z" fill="#00B191"/>
<path d="M77.7971 55.2999C77.6284 55.3001 77.4614 55.2674 77.3053 55.2036L49.6094 43.7118V7.74029C49.6097 7.42221 49.7363 7.11726 49.9612 6.89234C50.1861 6.66742 50.4911 6.5409 50.8091 6.54053H103.942C104.26 6.5409 104.565 6.66742 104.79 6.89234C105.015 7.11726 105.141 7.42221 105.142 7.74029V43.7369L105.089 43.7591L78.3037 55.198C78.1433 55.2654 77.9711 55.3001 77.7971 55.2999Z" fill="white"/>
<g filter="url(#filter2_d_98_6097)">
<path d="M77.7929 55.3856C77.6131 55.3858 77.435 55.3509 77.2685 55.283L49.5195 43.769V7.7403C49.5199 7.39949 49.6555 7.07275 49.8965 6.83176C50.1374 6.59077 50.4642 6.45522 50.805 6.45483H103.938C104.278 6.45522 104.605 6.59077 104.846 6.83176C105.087 7.07275 105.223 7.39949 105.223 7.7403V43.7934L78.3332 55.2768C78.1622 55.3487 77.9785 55.3857 77.7929 55.3856ZM49.8623 43.54L77.3992 54.966C77.6561 55.0703 77.9437 55.0685 78.1993 54.9613L104.88 43.5671V7.7403C104.88 7.49038 104.781 7.25078 104.604 7.07406C104.427 6.89734 104.188 6.79794 103.938 6.79764H50.805C50.5551 6.79794 50.3155 6.89734 50.1388 7.07406C49.962 7.25078 49.8626 7.49038 49.8623 7.7403L49.8623 43.54Z" fill="#3F3D56"/>
</g>
<path d="M124.761 35.2493H124.727L105.051 43.6511L78.1297 55.1466C78.0245 55.1908 77.9116 55.2139 77.7975 55.2145C77.6834 55.2151 77.5703 55.1932 77.4647 55.15L49.6901 43.6271L29.5305 35.263L29.4997 35.2493H29.4654C29.1473 35.2496 28.8423 35.3761 28.6174 35.6011C28.3925 35.826 28.266 36.1309 28.2656 36.449V88.5533C28.266 88.8713 28.3925 89.1763 28.6174 89.4012C28.8423 89.6262 29.1473 89.7527 29.4654 89.753H124.761C125.079 89.7527 125.384 89.6262 125.609 89.4012C125.834 89.1763 125.961 88.8713 125.961 88.5533V36.449C125.961 36.1309 125.834 35.826 125.609 35.6011C125.384 35.3761 125.079 35.2496 124.761 35.2493ZM125.618 88.5533C125.618 88.7805 125.528 88.9984 125.367 89.1591C125.206 89.3198 124.989 89.4102 124.761 89.4102H29.4654C29.2381 89.4102 29.0202 89.3198 28.8595 89.1591C28.6988 88.9984 28.6085 88.7805 28.6084 88.5533V36.449C28.6087 36.2274 28.6947 36.0145 28.8483 35.8548C29.002 35.6951 29.2114 35.6009 29.4328 35.5921L49.6901 43.9973L77.3328 55.4671C77.632 55.5888 77.9673 55.587 78.2651 55.4619L105.051 44.023L124.796 35.5921C125.017 35.6016 125.226 35.696 125.379 35.8556C125.532 36.0152 125.618 36.2278 125.618 36.449V88.5533Z" fill="#3F3D56"/>
<path d="M73.4805 19.9867H54.627C54.2637 19.9862 53.9155 19.8415 53.6587 19.5844C53.402 19.3273 53.2578 18.9789 53.2578 18.6156C53.2578 18.2522 53.402 17.9038 53.6587 17.6467C53.9155 17.3896 54.2637 17.2449 54.627 17.2444H73.4805C73.8439 17.2449 74.1921 17.3896 74.4489 17.6467C74.7056 17.9038 74.8498 18.2522 74.8498 18.6156C74.8498 18.9789 74.7056 19.3273 74.4489 19.5844C74.1921 19.8415 73.8439 19.9862 73.4805 19.9867Z" fill="#00B191"/>
<path d="M63.7129 14.1593H54.629C54.2653 14.1593 53.9166 14.0149 53.6594 13.7577C53.4023 13.5006 53.2578 13.1518 53.2578 12.7882C53.2578 12.4245 53.4023 12.0757 53.6594 11.8186C53.9166 11.5615 54.2653 11.417 54.629 11.417H63.7129C64.0766 11.417 64.4254 11.5615 64.6825 11.8186C64.9396 12.0757 65.0841 12.4245 65.0841 12.7882C65.0841 13.1518 64.9396 13.5006 64.6825 13.7577C64.4254 14.0149 64.0766 14.1593 63.7129 14.1593Z" fill="#00B191"/>
<path d="M91.4723 33.6984H62.6778C62.3145 33.6979 61.9662 33.5532 61.7095 33.2961C61.4528 33.039 61.3086 32.6905 61.3086 32.3272C61.3086 31.9639 61.4528 31.6154 61.7095 31.3583C61.9662 31.1013 62.3145 30.9566 62.6778 30.9561H91.4723C91.8356 30.9566 92.1838 31.1013 92.4405 31.3583C92.6973 31.6154 92.8415 31.9639 92.8415 32.3272C92.8415 32.6905 92.6973 33.039 92.4405 33.2961C92.1838 33.5532 91.8356 33.6979 91.4723 33.6984Z" fill="#CCCCCC"/>
<path d="M91.4703 40.0399H62.6758C62.3122 40.0399 61.9634 39.8955 61.7063 39.6383C61.4491 39.3812 61.3047 39.0324 61.3047 38.6688C61.3047 38.3051 61.4491 37.9564 61.7063 37.6992C61.9634 37.4421 62.3122 37.2976 62.6758 37.2976H91.4703C91.834 37.2976 92.1827 37.4421 92.4399 37.6992C92.697 37.9564 92.8415 38.3051 92.8415 38.6688C92.8415 39.0324 92.697 39.3812 92.4399 39.6383C92.1827 39.8955 91.834 40.0399 91.4703 40.0399Z" fill="#CCCCCC"/>
<path d="M124.233 48.7841C131.434 48.7841 137.271 42.9468 137.271 35.7461C137.271 28.5454 131.434 22.7081 124.233 22.7081C117.033 22.7081 111.195 28.5454 111.195 35.7461C111.195 42.9468 117.033 48.7841 124.233 48.7841Z" fill="#00B191"/>
<path d="M122.988 41.2499L119.086 36.2322L121.355 34.4671L123.203 36.8429L129.445 30.2537L131.532 32.2312L122.988 41.2499Z" fill="white"/>
<path d="M2.98784 13.0124C2.89885 12.9597 2.79683 12.9333 2.69348 12.936C2.59013 12.9387 2.48963 12.9705 2.40351 13.0276C2.31739 13.0848 2.24913 13.1651 2.20654 13.2594C2.16396 13.3536 2.1488 13.4579 2.16277 13.5603L2.58767 16.6768C2.59352 16.7228 2.59038 16.7694 2.57843 16.8142C2.56511 16.8582 2.54287 16.8991 2.51311 16.9342L0.133279 19.7535C0.0537758 19.8443 0.00709588 19.9591 0.000745695 20.0796C-0.00560449 20.2001 0.0287475 20.3192 0.0982703 20.4178L0.100765 20.4214C0.167365 20.5211 0.265394 20.5956 0.379245 20.6331C0.493096 20.6706 0.616221 20.669 0.729018 20.6284L2.44768 20.045C2.50466 20.0262 2.56568 20.0232 2.62423 20.0364C2.68277 20.0495 2.73664 20.0784 2.78005 20.1198C2.81244 20.1498 2.83826 20.1862 2.85591 20.2267C2.87355 20.2671 2.88261 20.3108 2.88255 20.355L2.94973 26.4785C2.95042 26.5672 2.9727 26.6543 3.01462 26.7324C3.05654 26.8105 3.11684 26.8773 3.19032 26.9268C3.26354 26.9763 3.34756 27.0075 3.43533 27.0177C3.5231 27.0279 3.61205 27.0169 3.69467 26.9856L16.5223 22.0797C16.619 22.0429 16.7034 21.9796 16.7657 21.897C16.8281 21.8144 16.8658 21.7158 16.8746 21.6127C16.8834 21.5096 16.863 21.4061 16.8156 21.3141C16.7682 21.2221 16.6957 21.1453 16.6067 21.0927L16.432 20.9889L2.98784 13.0124ZM2.37993 13.5304C2.37168 13.4688 2.38092 13.4063 2.40658 13.3498C2.43225 13.2932 2.47331 13.2451 2.52506 13.2109C2.57682 13.1766 2.63717 13.1576 2.69921 13.1561C2.76125 13.1545 2.82247 13.1705 2.87587 13.2021L16.3158 21.1763L16.4947 21.2824C16.5478 21.3141 16.591 21.3602 16.6192 21.4153C16.6475 21.4704 16.6597 21.5324 16.6544 21.5941C16.6492 21.6558 16.6267 21.7148 16.5896 21.7643C16.5525 21.8139 16.5022 21.852 16.4444 21.8744L3.61678 26.7802C3.56717 26.7991 3.51374 26.8057 3.46102 26.7995C3.4083 26.7933 3.35786 26.7745 3.31398 26.7446C3.2701 26.7147 3.23407 26.6747 3.20897 26.6279C3.18387 26.5812 3.17043 26.529 3.1698 26.4759L3.10264 20.3524C3.10267 20.2918 3.09227 20.2317 3.07187 20.1746L16.1316 21.6752C16.1825 21.6815 16.2341 21.6699 16.2773 21.6423C16.3206 21.6147 16.3528 21.5728 16.3685 21.5239C16.3841 21.4751 16.3822 21.4222 16.3631 21.3746C16.3439 21.327 16.3087 21.2876 16.2636 21.2632C16.2526 21.2571 16.2411 21.2521 16.2292 21.2482L2.80877 16.7684C2.81202 16.7279 2.8107 16.6871 2.80484 16.6469L2.37993 13.5304Z" fill="#F1F1F1"/>
<path d="M2.98784 13.0124C2.89885 12.9597 2.79683 12.9333 2.69348 12.936C2.59013 12.9387 2.48963 12.9705 2.40351 13.0276C2.31739 13.0848 2.24913 13.1651 2.20654 13.2594C2.16396 13.3536 2.1488 13.4579 2.16277 13.5603L2.58767 16.6768C2.59352 16.7228 2.59038 16.7694 2.57843 16.8142C2.56511 16.8582 2.54287 16.8991 2.51311 16.9342L0.133279 19.7535C0.0537758 19.8443 0.00709588 19.9591 0.000745695 20.0796C-0.00560449 20.2001 0.0287475 20.3192 0.0982703 20.4178L0.100765 20.4214C0.167365 20.5211 0.265394 20.5956 0.379245 20.6331C0.493096 20.6706 0.616221 20.669 0.729018 20.6284L2.44768 20.045C2.50466 20.0262 2.56568 20.0232 2.62423 20.0364C2.68277 20.0495 2.73664 20.0784 2.78005 20.1198C2.81244 20.1498 2.83826 20.1862 2.85591 20.2267C2.87355 20.2671 2.88261 20.3108 2.88255 20.355L2.94973 26.4785C2.95042 26.5672 2.9727 26.6543 3.01462 26.7324C3.05654 26.8105 3.11684 26.8773 3.19032 26.9268C3.26354 26.9763 3.34756 27.0075 3.43533 27.0177C3.5231 27.0279 3.61205 27.0169 3.69467 26.9856L16.5223 22.0797C16.619 22.0429 16.7034 21.9796 16.7657 21.897C16.8281 21.8144 16.8658 21.7158 16.8746 21.6127C16.8834 21.5096 16.863 21.4061 16.8156 21.3141C16.7682 21.2221 16.6957 21.1453 16.6067 21.0927L16.432 20.9889L2.98784 13.0124ZM2.37993 13.5304C2.37168 13.4688 2.38092 13.4063 2.40658 13.3498C2.43225 13.2932 2.47331 13.2451 2.52506 13.2109C2.57682 13.1766 2.63717 13.1576 2.69921 13.1561C2.76125 13.1545 2.82247 13.1705 2.87587 13.2021L16.3158 21.1763L16.4947 21.2824C16.5478 21.3141 16.591 21.3602 16.6192 21.4153C16.6475 21.4704 16.6597 21.5324 16.6544 21.5941C16.6492 21.6558 16.6267 21.7148 16.5896 21.7643C16.5525 21.8139 16.5022 21.852 16.4444 21.8744L3.61678 26.7802C3.56717 26.7991 3.51374 26.8057 3.46102 26.7995C3.4083 26.7933 3.35786 26.7745 3.31398 26.7446C3.2701 26.7147 3.23408 26.6747 3.20898 26.6279C3.18388 26.5812 3.17043 26.529 3.1698 26.4759L3.10263 20.3524C3.10267 20.2918 3.09226 20.2317 3.07186 20.1746C3.04312 20.0925 2.99476 20.0186 2.93097 19.9593C2.92229 19.9506 2.91271 19.9426 2.90311 19.9345L2.9025 19.9336C2.83044 19.8741 2.74438 19.834 2.65247 19.8171C2.56057 19.8002 2.46587 19.8071 2.37737 19.8371L0.657817 20.4211C0.59004 20.4457 0.515935 20.4467 0.447531 20.4239C0.379128 20.4011 0.320431 20.3558 0.280956 20.2955L0.279704 20.2937C0.237509 20.2348 0.216622 20.1632 0.220481 20.0908C0.224339 20.0185 0.252716 19.9496 0.300938 19.8954L2.6808 17.0761C2.70625 17.0466 2.72829 17.0143 2.74651 16.9799L2.74742 16.9792C2.76501 16.9463 2.77904 16.9115 2.78927 16.8755C2.79957 16.8406 2.8061 16.8047 2.80878 16.7685C2.81203 16.7279 2.81071 16.6871 2.80485 16.6469L2.37993 13.5304Z" fill="#E5E5E5"/>
<path d="M2.80772 16.7684L16.2281 21.2481C16.24 21.252 16.2516 21.257 16.2625 21.2631C16.3077 21.2875 16.3428 21.3269 16.362 21.3745C16.3812 21.4221 16.3831 21.475 16.3674 21.5238C16.3517 21.5727 16.3195 21.6146 16.2763 21.6422C16.233 21.6698 16.1815 21.6814 16.1305 21.6751L3.0708 20.1745L2.84017 20.1483L2.86571 19.9302L2.90144 19.9335L2.90204 19.9344L16.1554 21.4561L2.74636 16.9791L2.74546 16.9798L2.6875 16.9598L2.75711 16.7512L2.80772 16.7684Z" fill="#E5E5E5"/>
<path d="M152.65 0.0765678L139.206 8.05314L139.032 8.15687C138.943 8.20955 138.87 8.2863 138.823 8.3783C138.775 8.4703 138.755 8.57381 138.764 8.67692C138.773 8.78003 138.81 8.87857 138.873 8.96119C138.935 9.04381 139.019 9.10716 139.116 9.14396L151.944 14.0498C152.026 14.0811 152.115 14.0921 152.203 14.0819C152.291 14.0717 152.375 14.0405 152.448 13.9911C152.521 13.9415 152.582 13.8747 152.624 13.7966C152.666 13.7185 152.688 13.6314 152.689 13.5427L152.756 7.41917C152.756 7.37502 152.765 7.33134 152.782 7.29087C152.8 7.25041 152.826 7.21403 152.858 7.18403C152.902 7.1426 152.956 7.11375 153.014 7.10058C153.073 7.08741 153.134 7.09041 153.191 7.10925L154.909 7.6926C155.022 7.73316 155.145 7.73483 155.259 7.69732C155.373 7.65981 155.471 7.58529 155.538 7.48563L155.54 7.48201C155.61 7.38341 155.644 7.2643 155.638 7.14382C155.631 7.02334 155.585 6.90849 155.505 6.81774L153.125 3.9984C153.095 3.96328 153.073 3.92243 153.06 3.87837C153.048 3.83362 153.045 3.78697 153.051 3.74102L153.476 0.624507C153.49 0.522071 153.474 0.417775 153.432 0.323567C153.389 0.229359 153.321 0.149058 153.235 0.091863C153.149 0.0346683 153.048 0.00289422 152.945 0.000188493C152.842 -0.00251724 152.739 0.0239579 152.65 0.0765678ZM153.258 0.594576L152.833 3.71108C152.828 3.75133 152.826 3.79212 152.83 3.83266L139.409 8.31241C139.397 8.31626 139.386 8.32127 139.375 8.32738C139.33 8.35179 139.294 8.39121 139.275 8.43883C139.256 8.48644 139.254 8.53925 139.27 8.58813C139.286 8.637 139.318 8.67887 139.361 8.70649C139.404 8.73411 139.456 8.74574 139.507 8.73937L152.566 7.23885C152.546 7.2959 152.536 7.35605 152.536 7.41664L152.469 13.5401C152.468 13.5932 152.454 13.6454 152.429 13.6921C152.404 13.7389 152.368 13.7789 152.324 13.8088C152.28 13.8387 152.23 13.8575 152.177 13.8637C152.125 13.8699 152.071 13.8633 152.022 13.8444L139.194 8.93858C139.136 8.91622 139.086 8.87809 139.049 8.82853C139.012 8.77897 138.989 8.71997 138.984 8.65827C138.979 8.59656 138.991 8.53463 139.019 8.47952C139.047 8.42441 139.091 8.37834 139.144 8.34657L139.323 8.2405L152.762 0.266296C152.816 0.234669 152.877 0.218718 152.939 0.220268C153.001 0.221818 153.062 0.240807 153.113 0.275061C153.165 0.309315 153.206 0.357448 153.232 0.413952C153.257 0.470456 153.267 0.533066 153.258 0.594576Z" fill="#F1F1F1"/>
<path d="M152.65 0.0765678L139.206 8.05314L139.032 8.15687C138.943 8.20955 138.87 8.2863 138.823 8.3783C138.775 8.4703 138.755 8.57381 138.764 8.67692C138.773 8.78003 138.81 8.87857 138.873 8.96119C138.935 9.04381 139.019 9.10716 139.116 9.14396L151.944 14.0498C152.026 14.0811 152.115 14.0921 152.203 14.0819C152.291 14.0717 152.375 14.0405 152.448 13.9911C152.521 13.9415 152.582 13.8747 152.624 13.7966C152.666 13.7185 152.688 13.6314 152.689 13.5427L152.756 7.41917C152.756 7.37502 152.765 7.33134 152.782 7.29087C152.8 7.25041 152.826 7.21403 152.858 7.18403C152.902 7.1426 152.956 7.11375 153.014 7.10058C153.073 7.08741 153.134 7.09041 153.191 7.10925L154.909 7.6926C155.022 7.73316 155.145 7.73483 155.259 7.69732C155.373 7.65981 155.471 7.58529 155.538 7.48563L155.54 7.48201C155.61 7.38341 155.644 7.2643 155.638 7.14382C155.631 7.02334 155.585 6.90849 155.505 6.81774L153.125 3.9984C153.095 3.96328 153.073 3.92243 153.06 3.87837C153.048 3.83362 153.045 3.78697 153.051 3.74102L153.476 0.624507C153.49 0.522071 153.474 0.417775 153.432 0.323567C153.389 0.229359 153.321 0.149058 153.235 0.091863C153.149 0.0346683 153.048 0.00289422 152.945 0.000188493C152.842 -0.00251724 152.739 0.0239579 152.65 0.0765678ZM153.258 0.594576L152.833 3.71108C152.828 3.75134 152.826 3.79212 152.83 3.83267C152.832 3.86895 152.839 3.90484 152.849 3.93973C152.859 3.97569 152.873 4.01046 152.891 4.04345L152.892 4.04408C152.91 4.07853 152.932 4.11082 152.958 4.14035L155.337 6.95965C155.386 7.01376 155.414 7.08267 155.418 7.15505C155.422 7.22743 155.401 7.29896 155.359 7.35789L155.357 7.3597C155.318 7.42003 155.259 7.46527 155.191 7.48806C155.122 7.51086 155.048 7.50988 154.981 7.48528L153.261 6.90131C153.172 6.87132 153.078 6.86445 152.986 6.88134C152.894 6.89823 152.808 6.93832 152.736 6.99781L152.735 6.9987C152.726 7.00679 152.716 7.01485 152.707 7.02353C152.644 7.08277 152.595 7.15667 152.566 7.23884C152.546 7.29589 152.536 7.35604 152.536 7.41663L152.469 13.5401C152.468 13.5932 152.454 13.6454 152.429 13.6921C152.404 13.7389 152.368 13.7789 152.324 13.8088C152.28 13.8387 152.23 13.8575 152.177 13.8637C152.125 13.8699 152.071 13.8633 152.022 13.8444L139.194 8.93858C139.136 8.91622 139.086 8.87809 139.049 8.82853C139.012 8.77897 138.989 8.71998 138.984 8.65827C138.979 8.59657 138.991 8.53463 139.019 8.47952C139.047 8.42441 139.091 8.37834 139.144 8.34657L139.323 8.2405L152.762 0.2663C152.816 0.234673 152.877 0.218722 152.939 0.220272C153.001 0.221822 153.062 0.240811 153.113 0.275065C153.165 0.309319 153.206 0.357452 153.232 0.413956C153.257 0.470461 153.267 0.533066 153.258 0.594576Z" fill="#E5E5E5"/>
<path d="M152.883 3.81555L152.952 4.02409L152.894 4.0441L152.893 4.04348L139.484 8.52041L152.738 6.99872L152.738 6.99784L152.774 6.99449L152.799 7.2126L152.569 7.23886L139.509 8.73941C139.458 8.74578 139.407 8.73414 139.363 8.70652C139.32 8.67891 139.288 8.63704 139.272 8.58817C139.257 8.53929 139.258 8.48648 139.278 8.43886C139.297 8.39125 139.332 8.35183 139.377 8.32741C139.388 8.32131 139.4 8.3163 139.412 8.31244L152.832 3.8327L152.883 3.81555Z" fill="#E5E5E5"/>
<path d="M37.6081 111.529C37.5161 111.576 37.4392 111.648 37.3862 111.737C37.3333 111.826 37.3064 111.928 37.3087 112.031C37.311 112.134 37.3424 112.235 37.3993 112.321C37.4562 112.407 37.5362 112.476 37.6303 112.519L40.4915 113.825C40.5335 113.845 40.5712 113.873 40.6026 113.907C40.6328 113.941 40.6554 113.982 40.6692 114.026L41.7803 117.544C41.8145 117.66 41.8866 117.761 41.9851 117.83C42.0835 117.9 42.2026 117.935 42.323 117.929L42.3274 117.929C42.4473 117.926 42.5627 117.883 42.6552 117.806C42.7478 117.73 42.8121 117.625 42.8381 117.508L43.2636 115.744C43.2781 115.686 43.3082 115.632 43.3506 115.59C43.393 115.547 43.4462 115.517 43.5044 115.503C43.5471 115.491 43.5916 115.489 43.6352 115.496C43.6789 115.503 43.7206 115.518 43.7579 115.542L48.9696 118.758C49.0449 118.804 49.1304 118.832 49.2188 118.838C49.3073 118.845 49.3959 118.829 49.4771 118.794C49.558 118.758 49.6293 118.704 49.6848 118.635C49.7404 118.567 49.7786 118.486 49.7963 118.399L52.5052 104.935C52.5258 104.834 52.5173 104.728 52.4808 104.632C52.4443 104.535 52.3811 104.45 52.2987 104.388C52.2162 104.325 52.1178 104.287 52.0147 104.278C51.9116 104.269 51.8081 104.289 51.716 104.336L51.5349 104.428L37.6081 111.529ZM37.721 112.319C37.6646 112.294 37.6167 112.252 37.5826 112.2C37.5486 112.149 37.5298 112.088 37.5285 112.026C37.5272 111.964 37.5434 111.903 37.5753 111.85C37.6071 111.796 37.6534 111.753 37.7086 111.725L51.6311 104.627L51.8164 104.532C51.8717 104.504 51.9337 104.492 51.9953 104.498C52.057 104.504 52.1159 104.526 52.1652 104.564C52.2146 104.601 52.2524 104.652 52.2745 104.71C52.2965 104.768 52.3019 104.83 52.2899 104.891L49.581 118.355C49.5705 118.407 49.5475 118.456 49.5141 118.497C49.4807 118.538 49.4378 118.571 49.3891 118.592C49.3404 118.613 49.2873 118.622 49.2344 118.618C49.1814 118.615 49.1302 118.598 49.085 118.57L43.8734 115.354C43.8222 115.322 43.7658 115.299 43.7067 115.285L51.9544 105.049C51.987 105.009 52.0047 104.96 52.0045 104.908C52.0042 104.857 51.9861 104.807 51.9531 104.768C51.9202 104.729 51.8745 104.702 51.824 104.693C51.7736 104.684 51.7214 104.692 51.6767 104.717C51.6656 104.723 51.6553 104.73 51.6456 104.738L40.6871 113.687C40.6546 113.663 40.6194 113.642 40.5822 113.626L37.721 112.319Z" fill="#F1F1F1"/>
<path d="M37.6081 111.529C37.5161 111.576 37.4392 111.648 37.3862 111.737C37.3333 111.826 37.3064 111.928 37.3087 112.031C37.311 112.134 37.3424 112.235 37.3993 112.321C37.4562 112.407 37.5362 112.476 37.6303 112.519L40.4915 113.825C40.5335 113.845 40.5712 113.873 40.6026 113.907C40.6328 113.941 40.6554 113.982 40.6692 114.026L41.7803 117.544C41.8145 117.66 41.8866 117.761 41.9851 117.83C42.0835 117.9 42.2026 117.935 42.323 117.929L42.3274 117.929C42.4473 117.926 42.5627 117.883 42.6552 117.806C42.7478 117.73 42.8121 117.625 42.8381 117.508L43.2636 115.744C43.2781 115.686 43.3082 115.632 43.3506 115.59C43.393 115.547 43.4462 115.517 43.5044 115.503C43.5471 115.491 43.5916 115.489 43.6352 115.496C43.6789 115.503 43.7206 115.518 43.7579 115.542L48.9696 118.758C49.0449 118.804 49.1304 118.832 49.2188 118.838C49.3073 118.845 49.3959 118.829 49.4771 118.794C49.558 118.758 49.6293 118.704 49.6848 118.635C49.7404 118.567 49.7786 118.486 49.7963 118.399L52.5052 104.935C52.5258 104.834 52.5173 104.728 52.4808 104.632C52.4443 104.535 52.3811 104.45 52.2987 104.388C52.2162 104.325 52.1178 104.287 52.0147 104.278C51.9116 104.269 51.8081 104.289 51.716 104.336L51.5349 104.428L37.6081 111.529ZM37.721 112.319C37.6646 112.294 37.6167 112.252 37.5826 112.2C37.5486 112.149 37.5298 112.088 37.5285 112.026C37.5272 111.964 37.5434 111.903 37.5753 111.85C37.6071 111.796 37.6534 111.753 37.7086 111.725L51.6311 104.627L51.8164 104.532C51.8717 104.504 51.9337 104.492 51.9953 104.498C52.057 104.504 52.1159 104.526 52.1652 104.564C52.2146 104.601 52.2524 104.652 52.2745 104.71C52.2965 104.768 52.3019 104.83 52.2899 104.891L49.581 118.355C49.5705 118.407 49.5475 118.456 49.5141 118.497C49.4807 118.538 49.4378 118.571 49.3891 118.592C49.3404 118.613 49.2873 118.622 49.2344 118.618C49.1814 118.615 49.1302 118.598 49.085 118.57L43.8734 115.354C43.8222 115.322 43.7658 115.299 43.7067 115.285C43.6218 115.266 43.5335 115.267 43.4494 115.289C43.4374 115.292 43.4255 115.296 43.4135 115.3L43.4124 115.3C43.3236 115.329 43.2438 115.38 43.1804 115.449C43.117 115.518 43.0722 115.601 43.0502 115.692L42.6248 117.458C42.6094 117.528 42.5706 117.591 42.5148 117.637C42.459 117.682 42.3894 117.708 42.3173 117.709L42.3151 117.709C42.2427 117.713 42.1711 117.693 42.112 117.651C42.0529 117.609 42.0098 117.548 41.9898 117.478L40.8788 113.96C40.8674 113.923 40.8519 113.887 40.8325 113.853L40.8325 113.852C40.814 113.82 40.7921 113.789 40.7672 113.761C40.7432 113.734 40.7163 113.709 40.6871 113.687C40.6546 113.663 40.6194 113.642 40.5822 113.626L37.721 112.319Z" fill="#E5E5E5"/>
<path d="M40.69 113.687L51.6485 104.738C51.6581 104.73 51.6685 104.723 51.6795 104.717C51.7243 104.692 51.7764 104.684 51.8269 104.693C51.8774 104.702 51.923 104.729 51.956 104.768C51.9889 104.807 52.0071 104.857 52.0073 104.908C52.0075 104.96 51.9898 105.009 51.9572 105.049L43.7095 115.285L43.5641 115.466L43.3934 115.328L43.4153 115.3L43.4164 115.3L51.7854 104.911L40.8353 113.852L40.8354 113.853L40.7875 113.891L40.6484 113.721L40.69 113.687Z" fill="#E5E5E5"/>
<defs>
<filter id="filter0_d_98_6097" x="24.5234" y="33.2493" width="105.695" height="62.5038" filterUnits="userSpaceOnUse" color-interpolation-filters="sRGB">
<feFlood flood-opacity="0" result="BackgroundImageFix"/>
<feColorMatrix in="SourceAlpha" type="matrix" values="0 0 0 0 0 0 0 0 0 0 0 0 0 0 0 0 0 0 127 0" result="hardAlpha"/>
<feOffset dy="2"/>
<feGaussianBlur stdDeviation="2"/>
<feComposite in2="hardAlpha" operator="out"/>
<feColorMatrix type="matrix" values="0 0 0 0 0 0 0 0 0 0 0 0 0 0 0 0 0 0 0.15 0"/>
<feBlend mode="normal" in2="BackgroundImageFix" result="effect1_dropShadow_98_6097"/>
<feBlend mode="normal" in="SourceGraphic" in2="effect1_dropShadow_98_6097" result="shape"/>
</filter>
<filter id="filter1_d_98_6097" x="25.2969" y="2.0542" width="103.981" height="41.5377" filterUnits="userSpaceOnUse" color-interpolation-filters="sRGB">
<feFlood flood-opacity="0" result="BackgroundImageFix"/>
<feColorMatrix in="SourceAlpha" type="matrix" values="0 0 0 0 0 0 0 0 0 0 0 0 0 0 0 0 0 0 127 0" result="hardAlpha"/>
<feOffset dy="4"/>
<feGaussianBlur stdDeviation="2"/>
<feComposite in2="hardAlpha" operator="out"/>
<feColorMatrix type="matrix" values="0 0 0 0 0 0 0 0 0 0 0 0 0 0 0 0 0 0 0.15 0"/>
<feBlend mode="normal" in2="BackgroundImageFix" result="effect1_dropShadow_98_6097"/>
<feBlend mode="normal" in="SourceGraphic" in2="effect1_dropShadow_98_6097" result="shape"/>
</filter>
<filter id="filter2_d_98_6097" x="45.5195" y="6.45483" width="63.7036" height="56.9308" filterUnits="userSpaceOnUse" color-interpolation-filters="sRGB">
<feFlood flood-opacity="0" result="BackgroundImageFix"/>
<feColorMatrix in="SourceAlpha" type="matrix" values="0 0 0 0 0 0 0 0 0 0 0 0 0 0 0 0 0 0 127 0" result="hardAlpha"/>
<feOffset dy="4"/>
<feGaussianBlur stdDeviation="2"/>
<feComposite in2="hardAlpha" operator="out"/>
<feColorMatrix type="matrix" values="0 0 0 0 0 0 0 0 0 0 0 0 0 0 0 0 0 0 0.1 0"/>
<feBlend mode="normal" in2="BackgroundImageFix" result="effect1_dropShadow_98_6097"/>
<feBlend mode="normal" in="SourceGraphic" in2="effect1_dropShadow_98_6097" result="shape"/>
</filter>
</defs>
</svg>
