<svg width="30" height="30" viewBox="0 0 30 30" fill="none" xmlns="http://www.w3.org/2000/svg">
<rect x="0.5" y="0.5" width="29" height="29" rx="4.5" fill="#F7F7F7" stroke="#F0EFEB"/>
<mask id="mask0_831_11717" style="mask-type:alpha" maskUnits="userSpaceOnUse" x="1" y="1" width="28" height="28">
<circle cx="15" cy="15" r="13.5946" fill="#D9D9D9" stroke="#F0EFEB" stroke-width="0.810811"/>
</mask>
<g mask="url(#mask0_831_11717)">
</g>
<g clip-path="url(#clip0_831_11717)">
<g filter="url(#filter0_d_831_11717)">
<path d="M14.8082 6.74374C11.5797 6.85224 8.92631 9.76219 8.67654 13.4428L8.6688 13.5798L8.59137 13.5876C8.21837 13.6896 7.9149 13.9413 7.7492 14.2805C7.58349 14.6197 7.57153 15.0138 7.71636 15.3624L7.74676 15.4787C7.89725 15.9751 8.28809 16.3705 8.78548 16.534L8.85342 16.5536L8.84482 16.5062C9.45523 19.962 11.379 21.1483 14.9951 21.1483L15.2216 21.1467C18.7355 21.0975 20.6342 19.8797 21.1804 16.4908L21.2057 16.3206L21.1559 16.3355C21.7427 16.1888 22.2032 15.7244 22.3393 15.1269C22.4696 14.7938 22.4517 14.4094 22.2867 14.0794C22.1217 13.7494 21.825 13.5045 21.4697 13.405L21.3768 13.3895L21.2919 13.3875L21.2999 13.4684C20.9899 9.66801 18.2847 6.7406 14.9951 6.7406L14.8082 6.74374ZM14.9951 6.89445C18.1987 6.89445 20.8427 9.75557 21.1465 13.4809L21.2405 13.5496C21.2979 13.5364 21.361 13.5375 21.4315 13.554C21.7417 13.6409 22.0035 13.857 22.1491 14.1482C22.2947 14.4394 22.3105 14.7785 22.1926 15.082C22.0661 15.6333 21.6495 16.0535 21.1186 16.1862L21.0611 16.2501C20.5638 19.7925 18.6614 20.9944 14.9951 20.9944C11.4463 20.9944 9.59184 19.851 8.99632 16.4795L8.93905 16.4182C8.40345 16.2856 7.98383 15.8614 7.86248 15.3162C7.73055 14.9955 7.74111 14.6476 7.88743 14.348C8.03375 14.0485 8.30173 13.8262 8.62317 13.7378C8.65654 13.7334 8.69645 13.7321 8.73421 13.7358L8.81852 13.6625C8.97789 9.88848 11.7075 6.89445 14.9951 6.89445Z" fill="#F0C8AF"/>
<path d="M16.635 22.9403C16.635 24.6942 15.9581 26.1173 15.0966 26.1173C14.235 26.1173 13.5581 24.6942 13.5581 22.9403C13.5581 22.0096 13.4735 19.4403 13.7735 18.8634C14.0735 18.2865 14.735 18.6096 15.1274 18.6096C15.312 18.6096 16.0658 18.1326 16.3735 18.748C16.6812 19.3634 16.635 22.448 16.635 22.9403Z" fill="#F0C8AF"/>
<path d="M21.2506 13.9485C21.4121 20.1024 18.4506 21.0716 14.9967 21.0716C11.5429 21.0716 8.68902 20.087 8.73517 13.9485C8.76594 10.0101 11.5736 6.81775 14.9967 6.81775C18.4198 6.81775 21.1429 10.0101 21.2506 13.9485Z" fill="#FDD9C2"/>
<path d="M18.9966 22.1023C16.6889 21.6331 16.6889 21.5177 16.6889 21.5177C16.6345 21.918 16.4927 22.3014 16.2735 22.6408C15.8262 23.1429 15.4509 23.7046 15.1581 24.31C14.8654 23.7046 14.49 23.1429 14.0428 22.6408C13.8236 22.3014 13.6818 21.918 13.6274 21.5177C13.6274 21.5177 13.6274 21.6331 11.3197 22.1023C9.01198 22.5715 9.50019 28.9996 9.50019 28.9996C12 28.9996 14.4043 29.0073 15.1581 28.9996C15.1581 28.9996 17.5 28.9996 20.5 28.9996C20.4769 28.9996 21.3274 22.5639 18.9966 22.1023Z" fill="#6192FC"/>
<path d="M17.3595 21.4882C18.0007 21.5858 18.6281 21.7588 19.2287 22.0036C19.3458 22.2031 19.3458 22.4503 19.2287 22.6498C18.6151 22.5483 18.0086 22.407 17.4133 22.2267L17.3595 21.4882Z" fill="#4863F0"/>
<path d="M12.8655 21.4882C12.2242 21.5857 11.5968 21.7587 10.9962 22.0035C10.8792 22.203 10.8792 22.4502 10.9962 22.6497C11.6072 22.5474 12.211 22.4061 12.8039 22.2266L12.8655 21.4882Z" fill="#4863F0"/>
<path d="M12.6267 28.7335H13.0959C13.4358 28.7335 13.7113 28.4579 13.7113 28.1181V26.8565C13.7113 26.5167 13.4358 26.2412 13.0959 26.2412H12.6267C12.2868 26.2412 12.0113 26.5167 12.0113 26.8565V28.1181C12.0113 28.4579 12.2868 28.7335 12.6267 28.7335Z" fill="#4863F0"/>
<path d="M17.1889 28.7335H17.6582C17.998 28.7335 18.2736 28.4579 18.2736 28.1181V26.9335C18.2736 26.5936 17.998 26.3181 17.6582 26.3181H17.1889C16.8491 26.3181 16.5736 26.5936 16.5736 26.9335V28.1181C16.5736 28.4579 16.8491 28.7335 17.1889 28.7335Z" fill="#4863F0"/>
<path d="M16.6241 20.9592C16.8561 20.9098 17.0952 21.0036 17.2318 21.1976C17.3318 21.3746 17.5471 21.7669 17.9318 22.3515C18.0471 22.5284 18.5087 23.1207 18.3471 23.1207C18.0248 23.1138 17.7034 23.0829 17.3856 23.0284H17.1471H15.9553C16.182 22.7462 16.3584 22.4164 16.501 22.1053C16.5819 21.7286 16.4985 21.2645 16.6241 20.9592Z" fill="#4863F0"/>
<path d="M12.0882 27.0712H13.6344C13.6769 27.0712 13.7113 27.0368 13.7113 26.9943V26.3174C13.7113 26.2749 13.6769 26.2405 13.6344 26.2405H12.0882C12.0457 26.2405 12.0113 26.2749 12.0113 26.3174V26.9943C12.0113 27.0368 12.0457 27.0712 12.0882 27.0712Z" fill="#4863F0"/>
<path d="M13.619 21.0022C13.3847 20.9516 13.1427 21.0454 13.0036 21.2407C12.9113 21.4176 12.6959 21.8099 12.3113 22.3945C12.1882 22.5714 11.7344 23.1637 11.8959 23.1637C12.2157 23.1564 12.5345 23.1256 12.8498 23.0714H13.0882L14.3273 22.9867C14.0938 22.7384 13.9342 22.4578 13.7961 22.1461C13.7152 21.7694 13.6199 21.3875 13.619 21.0022Z" fill="#4863F0"/>
<path d="M16.6485 27.0712H18.1947C18.2372 27.0712 18.2716 27.0368 18.2716 26.9943V26.3174C18.2716 26.2749 18.2372 26.2405 18.1947 26.2405H16.6485C16.606 26.2405 16.5716 26.2749 16.5716 26.3174V26.9943C16.5716 27.0368 16.606 27.0712 16.6485 27.0712Z" fill="#4863F0"/>
<path d="M18.2756 6.4335L18.2814 6.39419C18.2814 6.27111 18.9891 6.56342 19.0507 6.60188C19.2849 6.72295 19.511 6.85914 19.7276 7.00958C20.1598 7.29024 20.5269 7.66004 20.8045 8.09419C21.1348 8.9095 21.3296 9.50693 21.3891 9.8865C21.6107 11.417 21.6107 12.9714 21.3891 14.5019C21.3891 14.5019 20.1814 15.0711 20.1814 14.6173C20.3486 13.6588 20.3119 12.6759 20.0737 11.7327C19.9045 11.2942 19.8199 10.8403 19.643 10.4019C19.4554 9.94654 19.1751 9.53524 18.8199 9.19419C18.5474 8.92745 18.2049 8.60388 18.0857 8.24656C17.8312 8.5591 17.4859 8.7993 17.0814 8.92496C16.5106 9.09211 15.4419 9.24116 14.343 9.38908L14.182 9.41072C12.6517 9.61625 11.107 9.82119 10.8045 10.0711C10.4619 10.6618 10.1858 11.2887 9.98143 11.9403C9.57374 12.9788 9.86605 14.248 9.86605 14.8173C9.87374 15.2942 8.66605 14.725 8.66605 14.725C8.44297 12.6173 8.17374 8.90188 10.0353 7.32496C11.366 6.16342 12.8507 5.83265 14.8122 5.7865L14.9345 5.78657C15.7854 5.78801 17.5751 5.81781 18.2756 6.4335Z" fill="#80341A"/>
<path d="M9.51961 14.848C9.74269 15.6172 10.0735 16.3865 9.40422 16.5326C8.64254 16.589 7.95478 16.0781 7.78884 15.3326C7.65249 15.0044 7.66375 14.6333 7.81976 14.314C7.97577 13.9946 8.26149 13.7576 8.60422 13.6634C9.06576 13.5942 9.30422 14.0557 9.51961 14.848Z" fill="#FDD9C2"/>
<path d="M20.5333 14.6253C20.3179 15.3945 19.9795 16.1637 20.6487 16.3022C21.408 16.3593 22.0949 15.8523 22.2641 15.1099C22.3898 14.7862 22.373 14.4245 22.2177 14.1139C22.0624 13.8033 21.7831 13.5728 21.4487 13.4791C20.9872 13.3714 20.7564 13.833 20.5333 14.6253Z" fill="#FDD9C2"/>
</g>
</g>
<defs>
<filter id="filter0_d_831_11717" x="6.51385" y="5.41921" width="17.0133" height="25.4203" filterUnits="userSpaceOnUse" color-interpolation-filters="sRGB">
<feFlood flood-opacity="0" result="BackgroundImageFix"/>
<feColorMatrix in="SourceAlpha" type="matrix" values="0 0 0 0 0 0 0 0 0 0 0 0 0 0 0 0 0 0 127 0" result="hardAlpha"/>
<feOffset dy="0.734581"/>
<feGaussianBlur stdDeviation="0.550936"/>
<feColorMatrix type="matrix" values="0 0 0 0 0 0 0 0 0 0 0 0 0 0 0 0 0 0 0.071838 0"/>
<feBlend mode="normal" in2="BackgroundImageFix" result="effect1_dropShadow_831_11717"/>
<feBlend mode="normal" in="SourceGraphic" in2="effect1_dropShadow_831_11717" result="shape"/>
</filter>
<clipPath id="clip0_831_11717">
<rect width="28" height="27.0667" fill="white" transform="translate(1 1.93335)"/>
</clipPath>
</defs>
</svg>
