<svg width="16" height="16" viewBox="0 0 16 16" fill="none" xmlns="http://www.w3.org/2000/svg">
<path d="M13.4769 7.75385C13.4769 7.87931 13.4271 7.99964 13.3383 8.08836C13.2496 8.17708 13.1293 8.22692 13.0038 8.22692H2.59612C2.47066 8.22692 2.35033 8.17708 2.26161 8.08836C2.17289 7.99964 2.12305 7.87931 2.12305 7.75385C2.12305 7.62838 2.17289 7.50805 2.26161 7.41933C2.35033 7.33061 2.47066 7.28077 2.59612 7.28077H13.0038C13.1293 7.28077 13.2496 7.33061 13.3383 7.41933C13.4271 7.50805 13.4769 7.62838 13.4769 7.75385ZM2.59612 4.44231H13.0038C13.1293 4.44231 13.2496 4.39247 13.3383 4.30375C13.4271 4.21503 13.4769 4.0947 13.4769 3.96923C13.4769 3.84376 13.4271 3.72344 13.3383 3.63472C13.2496 3.546 13.1293 3.49615 13.0038 3.49615H2.59612C2.47066 3.49615 2.35033 3.546 2.26161 3.63472C2.17289 3.72344 2.12305 3.84376 2.12305 3.96923C2.12305 4.0947 2.17289 4.21503 2.26161 4.30375C2.35033 4.39247 2.47066 4.44231 2.59612 4.44231ZM13.0038 11.0654H2.59612C2.47066 11.0654 2.35033 11.1152 2.26161 11.2039C2.17289 11.2927 2.12305 11.413 2.12305 11.5385C2.12305 11.6639 2.17289 11.7843 2.26161 11.873C2.35033 11.9617 2.47066 12.0115 2.59612 12.0115H13.0038C13.1293 12.0115 13.2496 11.9617 13.3383 11.873C13.4271 11.7843 13.4769 11.6639 13.4769 11.5385C13.4769 11.413 13.4271 11.2927 13.3383 11.2039C13.2496 11.1152 13.1293 11.0654 13.0038 11.0654Z" fill="black"/>
</svg>
