<svg width="31" height="30" viewBox="0 0 31 30" fill="none" xmlns="http://www.w3.org/2000/svg">
<rect x="1" y="0.5" width="29" height="29" rx="4.5" fill="#F7F7F7" stroke="#F0EFEB"/>
<g clip-path="url(#clip0_831_11683)">
<g filter="url(#filter0_d_831_11683)">
<path d="M11.7384 17.03C12.4691 17.03 13.0615 17.6224 13.0615 18.3531C13.0615 18.4708 13.0461 18.5848 13.0173 18.6934C13.3515 18.9334 13.5692 19.3255 13.5692 19.7685C13.5692 20.1787 13.3825 20.5452 13.0895 20.7879C13.1214 20.9016 13.1384 21.0215 13.1384 21.1454C13.1384 21.5142 12.9875 21.8477 12.7442 22.0877C12.8506 22.2464 12.9322 22.4312 12.9792 22.6349C13.1159 23.2269 12.9203 23.8039 12.527 24.1007C12.591 24.6038 12.198 25.1394 11.5762 25.3526C11.3006 25.4472 11.0216 25.4641 10.7738 25.4156C10.785 25.7171 10.6984 26.0544 10.523 26.3916C10.5071 26.4275 10.4864 26.4611 10.4615 26.4916L8.50061 26.4988L8.54611 25.3608C8.76043 24.9445 9.04761 24.6298 9.36508 24.4806C9.2597 24.3229 9.17895 24.1393 9.13227 23.9371C8.99198 23.3294 9.20183 22.7376 9.61615 22.4484C9.50786 22.2567 9.44611 22.0352 9.44611 21.7993C9.44611 21.3214 9.69943 20.9027 10.0791 20.6702C9.98906 20.4916 9.93842 20.2898 9.93842 20.0762C9.93842 19.6033 10.1865 19.1883 10.5596 18.9544C10.4674 18.7741 10.4153 18.5697 10.4153 18.3531C10.4153 17.6224 11.0077 17.03 11.7384 17.03Z" fill="#914126"/>
<path d="M11.9528 20.9226C12.3455 20.969 12.7436 20.9215 13.1144 20.7841C13.0605 20.7841 12.7374 20.7226 12.4067 20.7072H11.7759C11.7759 20.7072 11.9451 19.4995 12.3297 19.2918C12.7529 19.1263 13.1946 19.0127 13.6451 18.9534C13.6451 18.9534 12.4759 18.9534 12.1067 19.0072C11.9887 19.0072 11.8272 19.3072 11.6221 19.9072C11.3012 19.5831 10.9622 19.2775 10.6067 18.9918C10.9083 19.2936 11.1671 19.6352 11.3759 20.0072C11.5297 20.3995 11.0759 21.4841 11.0759 21.4841L10.6528 21.1457C10.4374 20.9688 10.2144 20.7841 10.1836 20.7457C10.3291 21.0684 10.554 21.349 10.8374 21.5611C11.2759 21.8534 10.4913 23.2072 10.4913 23.2072L9.72206 22.5072C9.72206 22.5072 9.92975 22.8918 10.0451 23.0764C10.2033 23.307 10.3083 23.5697 10.3528 23.8457C10.3359 24.1049 10.2973 24.3622 10.2374 24.6149C10.2374 24.6611 10.1503 24.7329 9.9759 24.8303H9.83744C9.74874 24.8084 9.66337 24.7748 9.58359 24.7303C9.52829 24.6978 9.47888 24.6562 9.43744 24.6072C9.37325 24.5363 9.38633 24.5742 9.49129 24.7226C9.52267 24.7554 9.55607 24.7862 9.59129 24.8149C9.67591 24.8644 9.76635 24.9031 9.86052 24.9303C9.92595 24.9568 10.321 25.2699 10.3888 25.2895L10.1221 24.9995C10.1221 24.9995 10.3477 24.6735 10.3888 24.5202C10.3906 24.5136 10.7817 24.2125 11.0067 24.238C11.4236 24.2167 11.8366 24.147 12.2374 24.0303C11.649 24.0848 11.0567 24.0848 10.4682 24.0303C10.567 23.6586 10.709 23.2997 10.8913 22.9611C10.999 22.7534 11.6605 22.7457 11.8836 22.6764L12.5528 22.4534L11.1144 22.4611C11.1144 22.4611 11.3374 20.8303 11.9528 20.9226Z" fill="#80341A"/>
<path d="M17.955 23.1063C17.7935 25.0448 17.2474 26.6525 16.3704 26.6525C15.4935 26.6525 14.7858 25.0602 14.7858 23.1063C14.7858 22.0756 14.6474 19.214 15.0089 18.5602C15.3704 17.9063 16.0166 18.2833 16.432 18.2833C16.632 18.2833 17.4858 17.691 17.7397 18.4371C18.0627 19.3833 17.9935 22.7217 17.955 23.1063Z" fill="#F0C8AF"/>
<path d="M16.1555 6.11711C12.9056 6.22417 10.2941 9.09669 9.94245 12.8417L9.93277 12.9517L9.90508 12.9436C9.85772 12.9334 9.80844 12.9314 9.7574 12.9377C9.13172 13.0118 8.86652 13.8275 9.10785 14.7263C9.28521 15.3868 9.72683 15.9257 10.2037 16.0758C10.8924 19.0756 13.2495 20.7602 16.3437 20.7602L16.568 20.7577C19.6841 20.6888 21.7623 19.1716 22.4932 16.0118L22.5335 15.8255L22.4897 15.8416C22.9743 15.697 23.4245 15.1586 23.6026 14.4955C23.8452 13.592 23.5755 12.7728 22.9371 12.6991L22.8605 12.6975C22.8355 12.6992 22.811 12.7032 22.7869 12.7093L22.7605 12.7178L22.7688 12.8311C22.5451 9.07101 19.7217 6.11401 16.3437 6.11401L16.1555 6.11711ZM16.3437 6.26786C19.6365 6.26786 22.3962 9.15809 22.6152 12.8402L22.735 12.8995C22.7929 12.8605 22.8533 12.8449 22.9202 12.852C23.4392 12.9119 23.6757 13.6301 23.454 14.4556C23.2888 15.0708 22.8744 15.5662 22.4457 15.6941L22.3924 15.7523C21.7096 19.0693 19.5901 20.6063 16.3437 20.6063C13.3178 20.6063 11.0244 18.9673 10.3016 15.9843C9.82801 15.7963 9.42113 15.2997 9.25643 14.6864C9.036 13.8655 9.26842 13.1505 9.7758 13.0904C9.84386 13.0821 9.90422 13.0951 9.96157 13.1299L10.0782 13.0694C10.3472 9.2219 13.0308 6.26786 16.3437 6.26786Z" fill="#F0C8AF"/>
<path d="M22.7082 13.4374C22.6236 18.8682 19.862 20.6836 16.3466 20.6836C12.8313 20.6836 9.84664 18.4297 9.9851 13.4374C10.1005 9.43744 12.8313 6.19128 16.3466 6.19128C19.862 6.19128 22.7697 9.43744 22.7082 13.4374Z" fill="#FDD9C2"/>
<path d="M20.2054 22.2143C17.8977 21.745 17.9823 21.6296 17.9823 21.6296C17.8698 22.0298 17.6931 22.4091 17.4592 22.7527C17.012 23.2548 16.6366 23.8166 16.3439 24.4219C16.0479 23.8184 15.6728 23.2571 15.2285 22.7527C15.0076 22.4134 14.8463 22.0387 14.7516 21.645C14.0001 21.9006 13.228 22.091 12.4439 22.2143C10.1362 22.6758 11.4993 28.9993 11.4993 28.9993C16.0965 29.0014 15.9999 28.9993 15.9999 28.9993C17.4999 28.9993 15.9999 28.9993 20.9999 28.9993C20.9999 28.9993 22.5362 22.6758 20.2054 22.2143Z" fill="#6192FC"/>
<path d="M14.029 21.4917C14.029 21.4917 12.406 21.7302 12.3829 21.9686C12.3598 22.2071 12.2983 22.5994 12.3829 22.6532C13.0281 22.5511 13.6655 22.4046 14.2906 22.2148L14.029 21.4917Z" fill="#4863F0"/>
<path d="M18.6696 21.4916C18.6696 21.4916 20.2927 21.73 20.3081 21.9685C20.3235 22.207 20.4004 22.5993 20.3081 22.6531C19.6656 22.5502 19.0308 22.4037 18.4081 22.2147L18.6696 21.4916Z" fill="#4863F0"/>
<path d="M17.9432 25.9783H19.7279V27.3321C19.7279 27.8249 19.3284 28.2244 18.8355 28.2244C18.3427 28.2244 17.9432 27.8249 17.9432 27.3321V25.9783Z" fill="#4863F0"/>
<path d="M17.9837 20.9224C18.2121 20.8682 18.4504 20.9598 18.5837 21.1531C18.6837 21.3301 18.8991 21.7224 19.2837 22.307C19.3991 22.4839 19.8606 23.0762 19.6914 23.0762C19.3712 23.0766 19.0517 23.0457 18.7375 22.9839H18.4991L17.3221 22.9455C17.5354 22.6712 17.7136 22.3714 17.8529 22.0531C17.9355 21.6818 17.9794 21.3028 17.9837 20.9224Z" fill="#4863F0"/>
<path d="M14.7545 20.9222C14.7545 20.9222 14.2776 20.8299 14.1007 21.1529C14.0007 21.3299 13.7853 21.7222 13.4007 22.3068C13.2776 22.4837 12.8237 23.076 12.9853 23.076C13.308 23.0765 13.63 23.0455 13.9468 22.9837H14.1776H15.3776C15.1778 22.7048 15.0076 22.4057 14.8699 22.0914C14.7883 21.7071 14.7496 21.315 14.7545 20.9222Z" fill="#4863F0"/>
<path d="M16.1729 3.99902L16.2679 3.99929C17.0665 3.996 17.8599 4.12866 18.614 4.39159C19.5277 4.60032 20.379 5.02204 21.0986 5.62236C21.744 6.18176 22.2676 6.86772 22.6371 7.63775C23.3357 9.12798 23.2897 10.8341 23.1194 12.4893L23.1007 12.6664L23.0812 12.8431C23.0349 13.2548 22.9837 13.6621 22.9371 14.0608C22.9371 14.0608 22.4141 14.3041 22.0539 14.3432C22.0529 14.4133 22.0577 14.4835 22.0679 14.5531C22.0696 14.6866 22.0262 14.8167 21.9448 14.9224C21.8679 15.0301 21.6986 15.2147 21.5448 15.1916C21.5662 14.9356 21.5662 14.6783 21.5448 14.4224C21.5592 13.9315 21.6031 13.442 21.6764 12.9566C21.6835 12.388 21.6266 11.8191 21.5063 11.2608C21.4653 11.0054 21.413 10.7522 21.3496 10.502C20.8019 10.3965 19.3393 10.1098 17.8825 9.784L17.7042 9.74391C16.932 9.56938 16.1721 9.38544 15.5621 9.21333C15.5476 9.20921 15.5333 9.20517 15.5192 9.20113C15.485 9.19146 15.4514 9.1818 15.4183 9.17218C15.4058 9.16852 15.3935 9.16493 15.3813 9.16135C15.324 9.14457 15.2683 9.1279 15.2143 9.11139C15.1879 9.1033 15.1619 9.09525 15.1362 9.08723C15.042 9.05772 14.9536 9.02878 14.872 9.0005C14.8527 8.99382 14.8338 8.98719 14.8153 8.9806L14.813 8.97978C14.6327 8.91541 14.4887 8.85475 14.391 8.79929C14.3421 8.77353 14.294 8.74663 14.2469 8.71863C13.5859 8.37727 13.2351 8.04474 13.1629 7.79291L13.1489 7.79576V8.52284C13.1489 8.66081 12.9736 8.91576 12.6229 9.28768C12.4371 9.5373 12.2178 9.816 11.9918 10.0955L11.9259 10.1768C11.9039 10.2039 11.8818 10.231 11.8598 10.258L11.78 10.3554C11.5335 10.6558 11.2887 10.9468 11.0798 11.1925L11.0602 11.2454C10.888 11.6854 10.8387 12.1624 10.8401 12.6123C10.8542 12.6962 10.8647 12.7808 10.8719 12.8656L10.8737 12.8918L10.8932 12.9954C10.9721 13.4313 11.0273 13.8713 11.0584 14.3134L11.0679 14.4608C11.0465 14.7168 11.0465 14.9741 11.0679 15.2301C10.914 15.2531 10.7448 15.0685 10.6602 14.9608C10.5809 14.8544 10.5402 14.7242 10.5448 14.5916C10.5569 14.5089 10.5613 14.4253 10.558 14.342C10.1995 14.2848 9.72172 14.0608 9.72172 14.0608C9.69116 13.7721 9.65757 13.4789 9.62473 13.1828L9.60514 13.0048C9.40753 11.192 9.26577 9.28327 10.0371 7.63775C10.4118 6.87094 10.9347 6.18596 11.5756 5.62236C12.1441 5.14647 12.7999 4.78591 13.5063 4.56082C14.319 4.20663 15.1929 4.01632 16.0781 4.0001L16.1729 3.99902ZM10.8417 12.728L10.8426 12.7732C10.8431 12.791 10.8437 12.8086 10.8443 12.8262L10.8833 13.0993C10.8826 13.0472 10.8807 12.9953 10.8775 12.9434L10.8737 12.8918L10.866 12.8502C10.8581 12.8094 10.85 12.7687 10.8417 12.728Z" fill="#914126"/>
<path d="M22.1212 14.0532C21.8981 14.8917 21.5827 15.6917 22.1212 15.7917C22.6596 15.8917 23.3058 15.307 23.5288 14.4763C23.7519 13.6455 23.5288 12.8455 22.9288 12.7763C22.5673 12.7378 22.3442 13.2301 22.1212 14.0532Z" fill="#FDD9C2"/>
<path d="M10.5827 14.2921C10.8058 15.1229 11.1211 15.9306 10.5827 16.0306C10.0442 16.1306 9.40576 15.5383 9.18268 14.7075C8.9596 13.8767 9.18268 13.0844 9.7673 13.0152C10.1442 12.969 10.3596 13.4613 10.5827 14.2921Z" fill="#FDD9C2"/>
</g>
</g>
<defs>
<filter id="filter0_d_831_11683" x="7.73138" y="3.74261" width="16.7286" height="26.5396" filterUnits="userSpaceOnUse" color-interpolation-filters="sRGB">
<feFlood flood-opacity="0" result="BackgroundImageFix"/>
<feColorMatrix in="SourceAlpha" type="matrix" values="0 0 0 0 0 0 0 0 0 0 0 0 0 0 0 0 0 0 127 0" result="hardAlpha"/>
<feOffset dy="0.51282"/>
<feGaussianBlur stdDeviation="0.384615"/>
<feColorMatrix type="matrix" values="0 0 0 0 0 0 0 0 0 0 0 0 0 0 0 0 0 0 0.071838 0"/>
<feBlend mode="normal" in2="BackgroundImageFix" result="effect1_dropShadow_831_11683"/>
<feBlend mode="normal" in="SourceGraphic" in2="effect1_dropShadow_831_11683" result="shape"/>
</filter>
<clipPath id="clip0_831_11683">
<rect width="28" height="28" fill="white" transform="translate(1.5 1)"/>
</clipPath>
</defs>
</svg>
